<svg width="669" height="710" fill="none" xmlns="http://www.w3.org/2000/svg"><path d="M359.148 686.642c49.277-14.783 73.437-28.814 85.072-34.973 28.608-15.126 96.981-83.43 116.897 29.498 3.696 20.806 36.89 18.068 57.833 10.54 40.312-14.578 56.943-62.692 46.677-101.635-11.498-43.392-55.301-69.536-98.761-66.936-48.867 2.738-88.426 33.263-119.43 68.852-4.038 4.654-14.577 21.696-20.19 14.852-3.695-4.381 1.095-27.308 1.506-32.51 1.78-23.886 21.354-35.794 33.057-55.574 11.498-19.437 16.494-41.886 14.578-64.335-1.027-12.456-4.106-24.775-8.623-36.479-4.039-10.54-11.02-21.079-14.031-31.893-2.532-9.24.205-10.54 8.692-14.441 10.814-4.996 21.354-10.13 31.483-16.358 18.616-11.703 35.384-26.76 47.909-44.965 28.471-40.928 29.087-92.122 29.087-140.168l-.41-.205h.821c-1.301-25.186-1.711-50.51-4.791-75.559-2.053-16.905-.958-49.62-22.243-54.616-21.149-4.86-43.597 20.19-57.149 32.715-9.855 9.171-19.642 18.479-28.676 28.608-6.981 7.871-12.731 18.958-24.023 17.658-12.936-1.506-26.008-6.981-39.217-8.829-8.692-1.163-19.232.616-24.639-7.255-13.688-19.847-31.756-128.19-75.559-97.049-18.889 13.414-32.441 39.97-44.418 59.338-13.414 21.56-26.076 43.803-37.643 66.388-11.566 22.723-21.079 46.472-25.323 71.726-2.121 12.867-2.532 25.734-1.916 38.601.547 9.582 6.502 22.107 5.338 31.141-1.574 12.456-14.03 6.57-23.475 4.996-11.703-2.053-23.612-1.916-35.316-.205-24.228 3.422-48.114 13.072-67.14 28.471-37.506 30.525-55.027 74.738-51.879 122.51 1.575 24.775-6.844 39.764-11.155 64.061-5.613 31.893 1.3 68.03 6.365 83.498 7.254 22.106 19.574 42.433 33.399 61.118 0 0 73.369 122.509 317.361 49.414h-.068Zm-20.259-462.388c-.548 24.981-14.03 57.285-41.338 62.624-29.978 5.817-45.035-23.065-45.719-48.593-.548-24.365 15.057-56.533 41.201-61.734 31.483-6.297 43.05 22.722 45.788 47.635v.137l.068-.069Zm71.316 42.639c-.411-24.365 11.566-52.494 33.125-65.224 34.015-20.191 54.274 12.387 55.985 42.707-.753 27.102-14.783 58.791-43.255 66.798-28.198 7.871-45.513-19.574-45.924-44.213l.069-.068Z" fill="#fff"/><path d="M109.614 672.61c-36.958-25.802-67.414-52.494-83.566-96.091-17.932-48.388-9.992-96.502 7.118-143.795 9.855-20.053 20.738-48.388 42.433-58.859 20.533-9.993 47.498 3.216 68.784 4.654 21.969 1.505 42.912-7.255 53.384-27.514 9.65-18.821 4.996-39.079-13.415-50.167 14.441 0 28.882-.205 43.392-.205h.137c42.844 5.407 82.882 25.186 114.365 54.616 14.578 13.688 26.965 29.566 36.273 47.156 7.324 13.893 18.206 36.273 8.487 51.467-11.361 17.932-38.395 10.061-55.232 7.871-20.327-2.669-40.38-3.901-56.669 10.814-32.715 29.429-15.125 73.848 19.985 90.547 19.574 9.24 40.312 9.377 61.46 7.734 28.677-4.449 30.661-5.544 23.886 17.932-4.654 13.209-12.114 25.802-21.354 37.505-26.487 33.605-65.156 55.369-107.315 62.145-37.095 5.954-91.917 8.076-141.879-16.084l-.137.137-.137.137Z" fill="#10B981"/></svg>