<svg xmlns="http://www.w3.org/2000/svg" viewBox="0 0 291 291"><path d="M145.5 0C65.3 0 0 65.3 0 145.5S65.3 291 145.5 291 291 225.7 291 145.5 225.7 0 145.5 0Zm69.2 110c6.6 1.6 12.9 3.4 18.6 5.5 23.8 8.5 29 17.3 29 19.9s-5.2 11.4-29 19.9c-3.3 1.2-6.7 2.3-10.1 3.3.1-1.8.2-3.7.2-5.6 0-13.2-3.1-28.4-8.7-43Zm-69.2-81.7c45.2 0 84.4 25.7 104 63.2-2.2-.9-4.4-1.8-6.7-2.6-13.3-4.8-28.6-8.4-45.3-10.9-5.6-7.7-12.1-14.5-19.1-19.8-9.8-7.3-20.9-11.8-32.9-11.8s-23 4.5-32.9 11.8c-7.1 5.3-13.5 12.1-19.1 19.8-16.7 2.5-32.1 6.1-45.3 10.9-2.2.8-4.5 1.7-6.7 2.6 19.6-37.5 58.8-63.2 104-63.2ZM195.1 153c0 4.1-.4 8-1.2 11.8-15 2.3-31.4 3.4-48.3 3.4s-33.3-1.2-48.3-3.4c-.8-3.9-1.2-7.8-1.2-11.8 0-14.6 5.5-33.3 14.2-48.7.8-1.3 1.5-2.7 2.4-4 10.2-16.3 22.2-25.7 33.1-25.7s22.9 9.4 33.1 25.7c.8 1.3 1.6 2.6 2.4 4 8.7 15.4 14.2 34.1 14.2 48.7Zm-127.3 5.6c-3.4-1-6.8-2.1-10.1-3.3-23.8-8.5-29-17.3-29-19.9s5.2-11.4 29-19.9c5.7-2.1 12-3.9 18.6-5.5-5.6 14.7-8.7 29.8-8.7 43s0 3.7.2 5.6Zm77.7 104.1c-29.9 0-57.2-11.3-78-29.8 24.1 6.3 50.6 9.7 78 9.7s53.9-3.3 78-9.7c-20.7 18.5-48.1 29.8-78 29.8ZM253 192.3c-15.1 7.3-32.4 13-51.1 16.7-17.8 3.5-36.8 5.4-56.4 5.4s-38.6-1.9-56.4-5.4c-18.7-3.7-36-9.4-51.1-16.7-2.4-5.6-4.4-11.4-6-17.3 4.9 2.5 10.2 4.8 16.1 6.9 8.5 3 17.8 5.7 27.9 7.8 12.4 2.6 25.7 4.5 39.7 5.6 9.7.8 19.6 1.2 29.8 1.2s20.1-.4 29.8-1.2c14-1.1 27.3-3 39.7-5.6 10-2.1 19.4-4.7 27.9-7.8 6.1-2.2 11.4-4.5 16.1-6.9-1.5 5.9-3.5 11.7-6 17.2Z" style="fill:#9de3b2"/></svg>